<?xml version="1.0" standalone="no"?>
<!DOCTYPE svg PUBLIC "-//W3C//DTD SVG 20010904//EN"
 "http://www.w3.org/TR/2001/REC-SVG-20010904/DTD/svg10.dtd">
<svg version="1.0" xmlns="http://www.w3.org/2000/svg"
 width="1920.000000pt" height="1920.000000pt" viewBox="0 0 1920.000000 1920.000000"
 preserveAspectRatio="xMidYMid meet">

<g transform="translate(0.000000,1920.000000) scale(0.100000,-0.100000)"
fill="#000000" stroke="none">
<path d="M808 15938 c11 -18 97 -168 192 -333 273 -474 303 -526 557 -965 387
-670 927 -1604 1268 -2195 174 -302 318 -551 320 -553 3 -3 329 81 439 113
l55 16 -33 57 c-19 31 -201 347 -406 702 -205 355 -474 821 -598 1035 -123
215 -300 521 -392 680 -92 160 -255 442 -363 627 -107 185 -192 340 -189 343
3 3 895 5 1981 5 1087 0 1975 4 1974 8 0 4 -31 108 -68 232 -36 124 -68 233
-71 243 -5 16 -125 17 -2345 17 l-2341 0 20 -32z"/>
<path d="M13817 15963 c-3 -5 -26 -87 -51 -183 -25 -96 -54 -205 -65 -242
l-20 -68 1930 0 c1061 0 1929 -2 1929 -5 0 -2 -84 -150 -187 -327 -102 -178
-287 -498 -411 -713 -200 -348 -633 -1097 -1037 -1795 -263 -456 -328 -570
-324 -574 2 -2 113 -32 247 -68 l243 -65 14 21 c7 11 131 226 275 476 145 250
354 613 465 805 247 428 635 1099 1155 2000 215 374 401 695 412 713 l20 32
-2296 0 c-1262 0 -2297 -3 -2299 -7z"/>
<path d="M2092 15208 c9 -13 109 -185 223 -383 114 -198 355 -614 535 -925
180 -311 405 -700 500 -865 95 -165 194 -336 220 -380 26 -44 124 -213 218
-375 93 -162 383 -664 644 -1115 261 -451 701 -1211 978 -1690 276 -478 610
-1054 740 -1280 265 -458 975 -1684 1507 -2605 192 -333 709 -1226 1148 -1985
438 -759 801 -1384 805 -1388 4 -5 112 173 240 395 128 222 272 471 320 553
48 83 188 326 312 540 124 215 401 694 615 1065 215 371 643 1114 953 1650
310 536 636 1101 725 1255 89 154 205 354 257 445 149 258 185 320 523 905
175 303 579 1002 898 1555 319 553 688 1192 820 1420 132 228 340 588 462 800
122 212 364 630 537 930 173 300 340 588 370 640 30 52 150 260 266 461 116
202 214 374 218 383 6 15 -561 16 -7521 16 l-7527 0 14 -22z m5145 -1168
l2213 0 0 -124 0 -124 -137 -80 c-76 -44 -299 -172 -495 -286 -197 -113 -517
-298 -710 -410 -352 -203 -573 -330 -806 -465 l-123 -70 -322 183 c-177 101
-707 403 -1177 671 -470 268 -939 535 -1042 594 -103 58 -188 110 -188 115 0
6 116 7 287 3 157 -4 1282 -7 2500 -7z m7533 -4 c0 -3 -134 -81 -297 -174
-274 -156 -642 -365 -1903 -1084 -256 -146 -480 -273 -498 -282 l-34 -17 -206
119 c-114 66 -427 247 -697 403 -269 155 -686 396 -925 534 l-435 251 -3 127
-3 127 2501 0 c1375 0 2500 -2 2500 -4z m-9579 -788 c486 -278 1088 -621 1337
-763 l452 -258 0 -1337 0 -1336 -98 -57 c-55 -31 -101 -57 -104 -57 -4 0 -61
96 -129 213 -67 116 -143 248 -169 292 -26 44 -133 229 -237 410 -310 537
-928 1607 -1028 1780 -51 88 -253 439 -450 780 -197 341 -387 669 -421 728
-35 60 -64 111 -64 114 0 3 6 3 13 0 7 -3 411 -232 898 -509z m9523 110 c-125
-216 -285 -494 -357 -618 -325 -564 -863 -1495 -1100 -1905 -143 -247 -302
-522 -352 -610 -282 -489 -456 -790 -459 -792 -2 -2 -53 25 -114 59 l-112 63
0 1328 0 1327 43 26 c23 14 222 127 442 253 658 374 1930 1098 2085 1187 79
46 146 81 148 79 2 -2 -99 -180 -224 -397z m-6937 -4426 c312 -180 817 -472
1121 -647 l552 -319 0 -1580 c0 -868 -2 -1577 -4 -1575 -2 2 -180 310 -396
684 -530 918 -911 1578 -1158 2005 -795 1376 -952 1649 -952 1657 0 4 49 36
108 69 101 58 108 61 134 48 15 -8 282 -162 595 -342z m4395 286 c59 -35 108
-66 108 -69 0 -3 -47 -86 -103 -185 -247 -427 -417 -722 -612 -1059 -114 -198
-451 -781 -748 -1295 -296 -514 -588 -1018 -647 -1120 -59 -102 -172 -297
-251 -435 l-144 -250 -3 1575 c-2 1251 1 1577 10 1586 11 10 278 164 1238 717
124 71 299 172 390 225 381 220 645 372 649 372 2 0 53 -28 113 -62z"/>
<path d="M11376 4778 c-93 -161 -193 -333 -222 -383 -29 -49 -186 -322 -350
-605 -163 -283 -369 -641 -458 -795 -89 -154 -290 -502 -446 -772 -157 -271
-288 -493 -291 -493 -4 0 -43 62 -86 137 -44 76 -309 534 -588 1018 -279 484
-590 1022 -690 1195 -100 173 -260 450 -355 615 -95 165 -175 302 -177 305 -5
6 -373 -363 -373 -375 0 -6 69 -130 153 -275 85 -146 279 -481 432 -745 635
-1096 1015 -1752 1333 -2302 186 -320 341 -581 345 -580 7 2 174 287 650 1112
207 359 285 495 574 995 682 1180 1061 1837 1071 1856 10 18 -7 38 -171 202
l-183 183 -168 -293z"/>
</g>
</svg>
